<svg width="18" height="19" viewBox="0 0 18 19" fill="none" xmlns="http://www.w3.org/2000/svg">
<path d="M10.2 0.399268L17.2 5.64927C17.4484 5.83556 17.65 6.07713 17.7889 6.35484C17.9277 6.63255 18 6.93878 18 7.24927V16.7493C18 17.2797 17.7893 17.7884 17.4142 18.1635C17.0391 18.5386 16.5304 18.7493 16 18.7493H2C1.46957 18.7493 0.960859 18.5386 0.585786 18.1635C0.210714 17.7884 0 17.2797 0 16.7493V7.24927C0 6.93878 0.0722902 6.63255 0.211146 6.35484C0.350001 6.07713 0.551608 5.83556 0.8 5.64927L7.8 0.399268C8.14619 0.139623 8.56726 -0.000732422 9 -0.000732422C9.43274 -0.000732422 9.85381 0.139623 10.2 0.399268Z" fill="#3D5CFF"/>
</svg>
