<svg width="130" height="130" viewBox="0 0 130 130" fill="none" xmlns="http://www.w3.org/2000/svg">
<path d="M129 1L1 129" stroke="#87C0F4" stroke-width="1.266" stroke-miterlimit="10" stroke-dasharray="3.78 3.78"/>
<path d="M64.7281 126.44C52.5227 126.44 40.5913 122.821 30.4428 116.04C20.2943 109.259 12.3845 99.6206 7.71369 88.3442C3.04285 77.0678 1.82075 64.6595 4.20192 52.6886C6.58309 40.7176 12.4606 29.7216 21.0912 21.091C29.7217 12.4605 40.7178 6.58295 52.6887 4.20178C64.6597 1.82061 77.0679 3.04272 88.3443 7.71355C99.6207 12.3844 109.259 20.2942 116.04 30.4427C122.821 40.5911 126.44 52.5225 126.44 64.728C126.44 81.095 119.938 96.7917 108.365 108.365C96.7919 119.938 81.0952 126.44 64.7281 126.44Z" fill="white"/>
<path d="M64.7281 126.44C52.5227 126.44 40.5913 122.821 30.4428 116.04C20.2943 109.259 12.3845 99.6206 7.71369 88.3442C3.04285 77.0678 1.82075 64.6595 4.20192 52.6886C6.58309 40.7176 12.4606 29.7216 21.0912 21.091C29.7217 12.4605 40.7178 6.58295 52.6887 4.20178C64.6597 1.82061 77.0679 3.04272 88.3443 7.71355C99.6207 12.3844 109.259 20.2942 116.04 30.4427C122.821 40.5911 126.44 52.5225 126.44 64.728C126.44 81.095 119.938 96.7917 108.365 108.365C96.7919 119.938 81.0952 126.44 64.7281 126.44Z" fill="#C4C4C4"/>
<path d="M25.1871 31.404C19.4701 31.433 17.5871 37.641 23.1711 43.498C27.0057 47.3905 31.2193 50.8905 35.7491 53.946C35.7491 53.946 31.5701 69.958 37.7071 80.764C43.8441 91.57 53.1271 98.585 64.7541 103.234C71.2236 105.923 78.0168 107.753 84.9611 108.68L107.233 123.704L129.977 99.04C129.977 99.04 103.805 71.233 97.9411 61.94C92.0771 52.647 53.2451 33.151 40.0131 38.021C40.0131 38.021 30.9051 31.375 25.1871 31.404Z" fill="#F9D2DD"/>
<path d="M46.9908 61.593L38.0518 37.193L32.4658 51.693L46.9908 61.593Z" fill="#F9ACC0"/>
<path d="M92.791 87.308C92.027 86.9 90.566 85.908 89.443 85.134C89.4259 73.3524 87.3664 61.663 83.356 50.585C82.7747 50.2517 82.1844 49.9183 81.585 49.585L74.019 50.65L80.559 107.978C81.809 108.226 82.824 108.393 83.559 108.5C84.4119 107.382 85.149 106.181 85.759 104.914L85.204 108.766L93.004 114.028C91.4307 109.15 91.0498 103.966 91.893 98.911C93.06 92.343 99.593 89.855 99.593 89.855C97.2088 89.3589 94.9148 88.4999 92.791 87.308Z" fill="#F9ACC0"/>
<path d="M43.5381 101.492C42.1715 101.495 40.8592 100.957 39.8879 99.9956C38.9166 99.0342 38.3652 97.7276 38.3541 96.361L37.9951 25.794C37.9924 24.4275 38.5305 23.1155 39.4919 22.1444C40.4532 21.1734 41.7597 20.6221 43.1261 20.611L79.8951 20.424C81.2618 20.421 82.574 20.959 83.5453 21.9204C84.5166 22.8817 85.068 24.1884 85.0791 25.555L85.4361 96.124C85.4388 97.4905 84.9008 98.8027 83.9395 99.7739C82.9781 100.745 81.6716 101.297 80.3051 101.308L43.5381 101.492Z" fill="#3D5CFF"/>
<path d="M71.4092 22.202L71.4182 24.47C71.4182 25.0042 71.207 25.5168 70.8307 25.8959C70.4544 26.2751 69.9434 26.49 69.4092 26.494L53.4352 26.576C52.9012 26.5766 52.3885 26.366 52.009 25.9903C51.6296 25.6145 51.4139 25.104 51.4092 24.57L51.3982 22.304L45.1372 22.336C43.8779 22.346 42.6737 22.8541 41.7878 23.7492C40.9019 24.6443 40.4062 25.8536 40.4092 27.113L40.7532 94.532C40.7632 95.7913 41.2713 96.9955 42.1664 97.8814C43.0615 98.7673 44.2708 99.2629 45.5302 99.26L78.0632 99.095C79.3225 99.085 80.5267 98.5769 81.4126 97.6818C82.2985 96.7867 82.7941 95.5774 82.7912 94.318L82.4462 26.899C82.4354 25.6397 81.9269 24.4357 81.0318 23.5498C80.1367 22.6638 78.9276 22.1678 77.6682 22.17L71.4092 22.202Z" fill="white"/>
<path d="M45.153 44.003C44.444 44.003 43.861 43.233 43.853 42.28L43.833 35.695C43.833 34.742 44.406 33.959 45.116 33.955L49.568 33.924C50.277 33.924 50.86 34.694 50.868 35.647L50.893 42.232C50.893 43.183 50.32 43.966 49.61 43.972L45.153 44.003Z" fill="#EAEAFF"/>
<path d="M54.2238 44.003C53.5148 44.003 52.9318 43.233 52.9238 42.28L52.9038 35.695C52.9038 34.742 53.4768 33.959 54.1868 33.955L58.6388 33.924C59.3478 33.924 59.9308 34.694 59.9388 35.647L59.9638 42.232C59.9638 43.183 59.3908 43.966 58.6808 43.972L54.2238 44.003Z" fill="#EAEAFF"/>
<path d="M63.2951 44.003C62.5861 44.003 62.0031 43.233 61.9951 42.28L61.9751 35.695C61.9751 34.742 62.5481 33.959 63.2581 33.955L67.7101 33.924C68.4191 33.924 69.0021 34.694 69.0101 35.647L69.0351 42.232C69.0351 43.183 68.4621 43.966 67.7521 43.972L63.2951 44.003Z" fill="#EAEAFF"/>
<path d="M72.3659 44.003C71.6569 44.003 71.0739 43.233 71.0659 42.28L71.0459 35.695C71.0459 34.742 71.6189 33.959 72.3289 33.955L76.7809 33.924C77.4899 33.924 78.0729 34.694 78.0809 35.647L78.1059 42.232C78.1059 43.183 77.5329 43.966 76.8229 43.972L72.3659 44.003Z" fill="#EAEAFF"/>
<path d="M40.7377 92.292L40.5317 51.68L40.7177 92.295L40.7377 92.292Z" fill="#EAEAFF"/>
<path d="M49.4018 77.058C50.1898 76.2446 50.8059 75.2809 51.2134 74.2243C51.6209 73.1677 51.8115 72.0398 51.7738 70.908C51.5658 67.191 47.3038 64.288 47.3038 64.288C48.3913 63.2475 49.1867 61.9398 49.6105 60.4955C50.0343 59.0513 50.0716 57.5212 49.7188 56.058C48.7478 52.113 43.4088 51.122 40.5288 50.766V51.681L40.7398 92.293C43.3098 91.951 46.2398 89.954 48.4308 86.379C50.9838 82.211 49.4018 77.058 49.4018 77.058Z" fill="#EAEAFF"/>
<path d="M84.9459 59.067L82.5879 54.913L82.6939 75.765C83.5029 77.642 84.1179 78.845 84.1179 78.845L84.9459 59.067Z" fill="#EAEAFF"/>
<path d="M82.6928 75.765L82.5868 54.913L78.2518 47.273C78.2518 47.273 77.9608 59.218 79.3348 65.692C80.1345 69.1479 81.2589 72.5205 82.6928 75.765Z" fill="#EAEAFF"/>
<path d="M85.4022 77.974C84.7352 75.582 85.7022 71.192 84.8122 69.653C82.2002 65.146 79.5022 59.965 78.4742 56.253C76.2472 48.189 76.8792 40.114 81.4132 38.916C85.9472 37.718 90.3632 46.437 91.8952 49.792C93.4272 53.147 100.389 66.732 100.389 66.732L97.8972 87.132C97.8972 87.132 88.9292 90.613 85.4022 77.974Z" fill="#F9D2DD"/>
<path d="M47.8519 53.212C51.2339 56.895 48.9029 61.447 46.8919 62.801C45.8786 63.5524 44.7066 64.0617 43.4659 64.29C43.4659 64.29 49.0099 65.828 49.6219 70.523C49.8963 71.915 49.6124 73.3591 48.8316 74.5437C48.0507 75.7283 46.8354 76.5584 45.4479 76.855C46.3667 77.4813 47.0822 78.3627 47.5064 79.3906C47.9305 80.4185 48.0447 81.548 47.8349 82.64C47.0119 86.34 42.4799 87.711 38.4429 87.565C34.4059 87.419 25.3169 85.611 27.0629 65.256C28.5729 47.662 44.4709 49.529 47.8519 53.212Z" fill="#F9D2DD"/>
<path d="M39.0361 60.686C39.0361 60.686 45.6701 61.661 46.3231 57.786C47.3971 51.411 38.9971 53.127 38.9971 53.127L39.0361 60.686Z" fill="#F9E1E8"/>
<path d="M39.1972 74.319C39.1972 74.319 45.8312 75.294 46.4842 71.419C47.5582 65.042 39.1582 66.761 39.1582 66.761L39.1972 74.319Z" fill="#F9E1E8"/>
<path d="M39.1458 84.928C39.1458 84.928 44.7208 85.748 45.2708 82.495C46.1758 77.134 39.1138 78.577 39.1138 78.577L39.1458 84.928Z" fill="#F9E1E8"/>
<path d="M99.5919 89.856C95.3719 89.3017 91.4724 87.3082 88.5519 84.212C83.6629 79.026 85.3129 72.026 85.3129 72.026" stroke="#1F1F39" stroke-width="0.501" stroke-miterlimit="10"/>
<path d="M36.0684 76.738L45.6164 76.812C46.79 76.5291 47.8327 75.8557 48.5733 74.9023C49.3139 73.949 49.7085 72.7722 49.6924 71.565C49.4783 72.5945 48.9562 73.5345 48.1953 74.2602C47.4344 74.9859 46.4708 75.4629 45.4324 75.628C43.0154 76.189 36.0684 76.738 36.0684 76.738Z" fill="#F9ACC0"/>
<path d="M38.3042 86.357C35.1773 86.0222 32.2952 84.5089 30.2442 82.125C29.2962 80.9059 28.4652 79.6001 27.7622 78.225C29.9522 86.478 35.5222 87.455 38.4442 87.563C42.2982 87.703 46.6032 86.463 47.6992 83.124C47.3975 83.6455 46.9938 84.1009 46.5122 84.463C44.096 86.0678 41.1793 86.7408 38.3042 86.357Z" fill="#F9ACC0"/>
<path d="M46.8934 62.8C48.6934 61.59 50.7344 57.835 48.7504 54.425C49.2328 55.3639 49.3765 56.4404 49.1574 57.473C48.3474 61.087 45.9154 62.341 42.5934 63.005C40.1455 63.4534 37.6753 63.7692 35.1934 63.951L43.4684 64.288C44.7089 64.0608 45.8807 63.5517 46.8934 62.8Z" fill="#F9ACC0"/>
<path d="M35.1138 64.244L44.5878 64.333" stroke="#1F1F39" stroke-width="0.501" stroke-miterlimit="10" stroke-linecap="round"/>
<path d="M36.0771 76.706L45.5511 76.794" stroke="#1F1F39" stroke-width="0.501" stroke-miterlimit="10" stroke-linecap="round"/>
<path d="M90.1948 26.748C90.2474 28.5789 90.7473 30.369 91.6509 31.9622C92.5546 33.5554 93.8344 34.9033 95.3788 35.888C95.4598 37.56 95.1918 39.869 92.8098 40.933C92.704 40.9717 92.6124 41.0414 92.5468 41.133C92.4722 41.2369 92.4377 41.3643 92.4496 41.4917C92.4616 41.619 92.5192 41.7378 92.6118 41.826C92.7194 41.9291 92.8629 41.9861 93.0118 41.985H93.0518H93.0608C95.5718 41.8673 97.9469 40.81 99.7148 39.023C99.9656 38.7817 100.269 38.6026 100.602 38.5003C100.935 38.398 101.287 38.3753 101.63 38.434C102.679 38.626 103.743 38.722 104.809 38.721C112.881 38.721 119.423 33.36 119.423 26.747C119.423 20.134 112.881 14.774 104.809 14.774C96.7368 14.774 90.1948 20.135 90.1948 26.748Z" fill="#3D5CFF"/>
</svg>
